# xmcd
#
# Track frame offsets:
# 150
# 21897
# 45190
# 60727
# 81217
# 97580
# 117820
# 138610
# 154835
# 170892
# 188577
# 210895
#
# Disc length: 3102 seconds
#
#
# Revision: 0
# Processed by: cddbd v1.5.1PL2 Copyright (c) Steve Scherf et al.
# Submitted via: FreeRIP 2.945 
#
DISCID=900c1c0c
DTITLE=Nó em Pingo D'Agua - Nó na Garganta
DYEAR=1998
DGENRE=Choro
TTITLE0=Nó em Pingo D'Água-Nó na Garganta
TTITLE1=Nó em Pingo D'Água-Pagode Jazz Sardinhas Club
TTITLE2=Nó em Pingo D'Água-Conversa Fiada
TTITLE3=Nó em Pingo D'Água-Tristorosa
TTITLE4=Nó em Pingo D'Água-Luiza
TTITLE5=Nó em Pingo D'Água-Exaltação
TTITLE6=Nó em Pingo D'Água-Manu
TTITLE7=Nó em Pingo D'Água-Valsa da Noite
TTITLE8=Nó em Pingo D'Água-Choro de Criança
TTITLE9=Nó em Pingo D'Água-Samba
TTITLE10=Nó em Pingo D'Água-Ilha
TTITLE11=Nó em Pingo D'Água-Iluminada
EXTD=Percussão: Celsinho Silva\nSopros: Mário Sève\nBaixo: Papito\nBandolim e Violãio: Rodrigo Lessa\nViolão: Rogério Souza
EXTT0=autor: Ginga
EXTT1=autor: Rodrigo Lessa e Eduardo Neves
EXTT2=autor: Rogério Souza
EXTT3=autor: Epaminondas Villalba e Cacaso
EXTT4=autor: Papito
EXTT5=autor: Rodrigo Lessa
EXTT6=autor: Rogério Souza
EXTT7=autor: Mário Sève
EXTT8=autor: Mário Sève
EXTT9=autor: Rogério Souza
EXTT10=autor: Rodrigo Lessa
EXTT11=autor: Celsinho Silva
PLAYORDER=
